<svg width="67" height="67" viewBox="0 0 67 67" fill="none" xmlns="http://www.w3.org/2000/svg">
<g filter="url(#filter0_d_116_661)">
<g filter="url(#filter1_i_116_661)">
<rect x="8" y="4" width="51" height="51" rx="6" fill="#AB4896"/>
</g>
<g filter="url(#filter2_i_116_661)">
<path fill-rule="evenodd" clip-rule="evenodd" d="M56.8322 5.38323C57.1139 5.72264 57.3589 6.09396 57.5614 6.49144C58.2154 7.77491 58.2154 9.45507 58.2154 12.8154V44.6154C58.2154 47.9757 58.2154 49.6559 57.5614 50.9393C56.9862 52.0683 56.0683 52.9862 54.9393 53.5614C53.6559 54.2154 51.9757 54.2154 48.6154 54.2154H16.8154C13.4551 54.2154 11.7749 54.2154 10.4914 53.5614C10.094 53.3589 9.72264 53.1139 9.38323 52.8322C9.1015 52.4928 8.85649 52.1214 8.65396 51.7239C8 50.4405 8 48.7603 8 45.4V13.6C8 10.2397 8 8.55953 8.65396 7.27606C9.2292 6.14708 10.1471 5.2292 11.2761 4.65396C12.5595 4 14.2397 4 17.6 4H49.4C52.7603 4 54.4405 4 55.7239 4.65396C56.1214 4.85649 56.4928 5.1015 56.8322 5.38323Z" fill="url(#paint0_linear_116_661)"/>
</g>
<g filter="url(#filter3_d_116_661)">
<path d="M32.6098 41.42C31.8204 41.42 30.9778 41.3027 30.0818 41.068C29.1858 40.812 28.4498 40.4493 27.8738 39.98C27.5964 39.7453 27.3724 39.4467 27.2018 39.084C27.0524 38.7 26.9778 38.3373 26.9778 37.996C26.9778 37.6333 27.1271 37.292 27.4258 36.972C27.7458 36.652 28.1938 36.492 28.7698 36.492C29.1538 36.492 29.6338 36.6947 30.2098 37.1C30.5511 37.3133 30.9244 37.5053 31.3298 37.676C31.7351 37.8467 32.1511 37.932 32.5778 37.932C33.6018 37.932 34.4871 37.7507 35.2338 37.388C35.9804 37.004 36.5564 36.4813 36.9618 35.82C37.3671 35.1587 37.5698 34.38 37.5698 33.484C37.5698 32.6733 37.3778 31.98 36.9938 31.404C36.6311 30.828 36.1404 30.38 35.5218 30.06C34.9244 29.74 34.2738 29.58 33.5698 29.58C32.9084 29.58 32.3324 29.6867 31.8418 29.9C31.3511 30.1133 30.9031 30.3373 30.4978 30.572C30.0924 30.7853 29.6871 30.892 29.2818 30.892C28.5778 30.892 28.0551 30.7427 27.7138 30.444C27.3724 30.124 27.1591 29.7507 27.0738 29.324C26.9884 28.8973 26.9671 28.5133 27.0098 28.172L28.0018 20.396C28.0871 19.948 28.3004 19.5853 28.6418 19.308C29.0044 19.0093 29.4311 18.86 29.9218 18.86H39.1698C39.6818 18.86 40.1084 19.0307 40.4498 19.372C40.7911 19.7133 40.9618 20.14 40.9618 20.652C40.9618 21.1427 40.7911 21.5587 40.4498 21.9C40.1084 22.22 39.6818 22.38 39.1698 22.38H30.9138L31.2658 22.092L30.4018 28.588L29.9858 27.372C30.1138 27.1587 30.3911 26.956 30.8178 26.764C31.2444 26.572 31.7351 26.412 32.2898 26.284C32.8444 26.1347 33.3884 26.06 33.9218 26.06C35.3511 26.06 36.6311 26.3907 37.7618 27.052C38.8924 27.692 39.7778 28.5773 40.4178 29.708C41.0791 30.8173 41.4098 32.076 41.4098 33.484C41.4098 35.084 41.0471 36.4813 40.3218 37.676C39.5964 38.8707 38.5724 39.7987 37.2498 40.46C35.9484 41.1 34.4018 41.42 32.6098 41.42Z" fill="url(#paint1_linear_116_661)"/>
</g>
</g>
<defs>
<filter id="filter0_d_116_661" x="0" y="0" width="67" height="67" filterUnits="userSpaceOnUse" color-interpolation-filters="sRGB">
<feFlood flood-opacity="0" result="BackgroundImageFix"/>
<feColorMatrix in="SourceAlpha" type="matrix" values="0 0 0 0 0 0 0 0 0 0 0 0 0 0 0 0 0 0 127 0" result="hardAlpha"/>
<feOffset dy="4"/>
<feGaussianBlur stdDeviation="4"/>
<feComposite in2="hardAlpha" operator="out"/>
<feColorMatrix type="matrix" values="0 0 0 0 0.608333 0 0 0 0 0.296563 0 0 0 0 0.542835 0 0 0 0.25 0"/>
<feBlend mode="normal" in2="BackgroundImageFix" result="effect1_dropShadow_116_661"/>
<feBlend mode="normal" in="SourceGraphic" in2="effect1_dropShadow_116_661" result="shape"/>
</filter>
<filter id="filter1_i_116_661" x="8" y="4" width="51" height="51" filterUnits="userSpaceOnUse" color-interpolation-filters="sRGB">
<feFlood flood-opacity="0" result="BackgroundImageFix"/>
<feBlend mode="normal" in="SourceGraphic" in2="BackgroundImageFix" result="shape"/>
<feColorMatrix in="SourceAlpha" type="matrix" values="0 0 0 0 0 0 0 0 0 0 0 0 0 0 0 0 0 0 127 0" result="hardAlpha"/>
<feOffset dx="1" dy="1"/>
<feComposite in2="hardAlpha" operator="arithmetic" k2="-1" k3="1"/>
<feColorMatrix type="matrix" values="0 0 0 0 1 0 0 0 0 1 0 0 0 0 1 0 0 0 0.22 0"/>
<feBlend mode="normal" in2="shape" result="effect1_innerShadow_116_661"/>
</filter>
<filter id="filter2_i_116_661" x="8" y="4" width="50.2154" height="50.2154" filterUnits="userSpaceOnUse" color-interpolation-filters="sRGB">
<feFlood flood-opacity="0" result="BackgroundImageFix"/>
<feBlend mode="normal" in="SourceGraphic" in2="BackgroundImageFix" result="shape"/>
<feColorMatrix in="SourceAlpha" type="matrix" values="0 0 0 0 0 0 0 0 0 0 0 0 0 0 0 0 0 0 127 0" result="hardAlpha"/>
<feOffset dx="1" dy="1"/>
<feComposite in2="hardAlpha" operator="arithmetic" k2="-1" k3="1"/>
<feColorMatrix type="matrix" values="0 0 0 0 1 0 0 0 0 1 0 0 0 0 1 0 0 0 0.22 0"/>
<feBlend mode="normal" in2="shape" result="effect1_innerShadow_116_661"/>
</filter>
<filter id="filter3_d_116_661" x="18.9458" y="14.86" width="30.464" height="38.56" filterUnits="userSpaceOnUse" color-interpolation-filters="sRGB">
<feFlood flood-opacity="0" result="BackgroundImageFix"/>
<feColorMatrix in="SourceAlpha" type="matrix" values="0 0 0 0 0 0 0 0 0 0 0 0 0 0 0 0 0 0 127 0" result="hardAlpha"/>
<feOffset dy="4"/>
<feGaussianBlur stdDeviation="4"/>
<feComposite in2="hardAlpha" operator="out"/>
<feColorMatrix type="matrix" values="0 0 0 0 0 0 0 0 0 0 0 0 0 0 0 0 0 0 0.17 0"/>
<feBlend mode="normal" in2="BackgroundImageFix" result="effect1_dropShadow_116_661"/>
<feBlend mode="normal" in="SourceGraphic" in2="effect1_dropShadow_116_661" result="shape"/>
</filter>
<linearGradient id="paint0_linear_116_661" x1="33.1077" y1="4" x2="33.1077" y2="54.2154" gradientUnits="userSpaceOnUse">
<stop stop-color="#D457BA"/>
<stop offset="1" stop-color="#ED78D5"/>
</linearGradient>
<linearGradient id="paint1_linear_116_661" x1="34.1165" y1="16.8693" x2="34.1165" y2="41.5847" gradientUnits="userSpaceOnUse">
<stop stop-color="white"/>
<stop offset="1" stop-color="#DCDCDC"/>
</linearGradient>
</defs>
</svg>
