<svg width="67" height="67" viewBox="0 0 67 67" fill="none" xmlns="http://www.w3.org/2000/svg">
<g filter="url(#filter0_d_116_657)">
<g filter="url(#filter1_i_116_657)">
<rect x="8" y="4" width="51" height="51" rx="6" fill="#3174BE"/>
</g>
<g filter="url(#filter2_i_116_657)">
<path fill-rule="evenodd" clip-rule="evenodd" d="M56.8322 5.38323C57.1139 5.72264 57.3589 6.09396 57.5614 6.49144C58.2154 7.77491 58.2154 9.45507 58.2154 12.8154V44.6154C58.2154 47.9757 58.2154 49.6559 57.5614 50.9393C56.9862 52.0683 56.0683 52.9862 54.9393 53.5614C53.6559 54.2154 51.9757 54.2154 48.6154 54.2154H16.8154C13.4551 54.2154 11.7749 54.2154 10.4914 53.5614C10.094 53.3589 9.72264 53.1139 9.38323 52.8322C9.1015 52.4928 8.85649 52.1214 8.65396 51.7239C8 50.4405 8 48.7603 8 45.4V13.6C8 10.2397 8 8.55953 8.65396 7.27606C9.2292 6.14708 10.1471 5.2292 11.2761 4.65396C12.5595 4 14.2397 4 17.6 4H49.4C52.7603 4 54.4405 4 55.7239 4.65396C56.1214 4.85649 56.4928 5.1015 56.8322 5.38323Z" fill="url(#paint0_linear_116_657)"/>
</g>
<g filter="url(#filter3_d_116_657)">
<path d="M34.7291 41.1C34.1317 41.1 33.6411 40.9187 33.2571 40.556C32.8731 40.172 32.6811 39.7027 32.6811 39.148V23.02L33.1291 23.724L30.7931 25.452C30.4944 25.6867 30.1211 25.804 29.6731 25.804C29.1611 25.804 28.7131 25.612 28.3291 25.228C27.9451 24.844 27.7531 24.3853 27.7531 23.852C27.7531 23.1693 28.0837 22.6147 28.7451 22.188L33.3531 19.116C33.5664 18.9667 33.8011 18.86 34.0571 18.796C34.3344 18.732 34.5904 18.7 34.8251 18.7C35.4437 18.7 35.9344 18.892 36.2971 19.276C36.6597 19.6387 36.8411 20.0973 36.8411 20.652V39.148C36.8411 39.7027 36.6384 40.172 36.2331 40.556C35.8491 40.9187 35.3477 41.1 34.7291 41.1Z" fill="url(#paint1_linear_116_657)"/>
</g>
</g>
<defs>
<filter id="filter0_d_116_657" x="0" y="0" width="67" height="67" filterUnits="userSpaceOnUse" color-interpolation-filters="sRGB">
<feFlood flood-opacity="0" result="BackgroundImageFix"/>
<feColorMatrix in="SourceAlpha" type="matrix" values="0 0 0 0 0 0 0 0 0 0 0 0 0 0 0 0 0 0 127 0" result="hardAlpha"/>
<feOffset dy="4"/>
<feGaussianBlur stdDeviation="4"/>
<feComposite in2="hardAlpha" operator="out"/>
<feColorMatrix type="matrix" values="0 0 0 0 0.222083 0 0 0 0 0.442293 0 0 0 0 0.683333 0 0 0 0.37 0"/>
<feBlend mode="normal" in2="BackgroundImageFix" result="effect1_dropShadow_116_657"/>
<feBlend mode="normal" in="SourceGraphic" in2="effect1_dropShadow_116_657" result="shape"/>
</filter>
<filter id="filter1_i_116_657" x="8" y="4" width="51" height="51" filterUnits="userSpaceOnUse" color-interpolation-filters="sRGB">
<feFlood flood-opacity="0" result="BackgroundImageFix"/>
<feBlend mode="normal" in="SourceGraphic" in2="BackgroundImageFix" result="shape"/>
<feColorMatrix in="SourceAlpha" type="matrix" values="0 0 0 0 0 0 0 0 0 0 0 0 0 0 0 0 0 0 127 0" result="hardAlpha"/>
<feOffset dx="1" dy="1"/>
<feComposite in2="hardAlpha" operator="arithmetic" k2="-1" k3="1"/>
<feColorMatrix type="matrix" values="0 0 0 0 1 0 0 0 0 1 0 0 0 0 1 0 0 0 0.22 0"/>
<feBlend mode="normal" in2="shape" result="effect1_innerShadow_116_657"/>
</filter>
<filter id="filter2_i_116_657" x="8" y="4" width="50.2154" height="50.2154" filterUnits="userSpaceOnUse" color-interpolation-filters="sRGB">
<feFlood flood-opacity="0" result="BackgroundImageFix"/>
<feBlend mode="normal" in="SourceGraphic" in2="BackgroundImageFix" result="shape"/>
<feColorMatrix in="SourceAlpha" type="matrix" values="0 0 0 0 0 0 0 0 0 0 0 0 0 0 0 0 0 0 127 0" result="hardAlpha"/>
<feOffset dx="1" dy="1"/>
<feComposite in2="hardAlpha" operator="arithmetic" k2="-1" k3="1"/>
<feColorMatrix type="matrix" values="0 0 0 0 1 0 0 0 0 1 0 0 0 0 1 0 0 0 0.22 0"/>
<feBlend mode="normal" in2="shape" result="effect1_innerShadow_116_657"/>
</filter>
<filter id="filter3_d_116_657" x="19.7531" y="14.7" width="25.088" height="38.4" filterUnits="userSpaceOnUse" color-interpolation-filters="sRGB">
<feFlood flood-opacity="0" result="BackgroundImageFix"/>
<feColorMatrix in="SourceAlpha" type="matrix" values="0 0 0 0 0 0 0 0 0 0 0 0 0 0 0 0 0 0 127 0" result="hardAlpha"/>
<feOffset dy="4"/>
<feGaussianBlur stdDeviation="4"/>
<feComposite in2="hardAlpha" operator="out"/>
<feColorMatrix type="matrix" values="0 0 0 0 0 0 0 0 0 0 0 0 0 0 0 0 0 0 0.17 0"/>
<feBlend mode="normal" in2="BackgroundImageFix" result="effect1_dropShadow_116_657"/>
<feBlend mode="normal" in="SourceGraphic" in2="effect1_dropShadow_116_657" result="shape"/>
</filter>
<linearGradient id="paint0_linear_116_657" x1="33.1077" y1="12.6308" x2="33.1077" y2="54.2154" gradientUnits="userSpaceOnUse">
<stop stop-color="#3C85D6"/>
<stop offset="1" stop-color="#529BED"/>
</linearGradient>
<linearGradient id="paint1_linear_116_657" x1="33.3318" y1="16.8693" x2="33.3318" y2="41.5847" gradientUnits="userSpaceOnUse">
<stop stop-color="white"/>
<stop offset="1" stop-color="#DCDCDC"/>
</linearGradient>
</defs>
</svg>
