<svg width="67" height="67" viewBox="0 0 67 67" fill="none" xmlns="http://www.w3.org/2000/svg">
<g filter="url(#filter0_d_116_658)">
<g filter="url(#filter1_i_116_658)">
<rect x="8" y="4" width="51" height="51" rx="6" fill="#AB4896"/>
</g>
<g filter="url(#filter2_i_116_658)">
<path fill-rule="evenodd" clip-rule="evenodd" d="M56.8322 5.38323C57.1139 5.72264 57.3589 6.09396 57.5614 6.49144C58.2154 7.77491 58.2154 9.45507 58.2154 12.8154V44.6154C58.2154 47.9757 58.2154 49.6559 57.5614 50.9393C56.9862 52.0683 56.0683 52.9862 54.9393 53.5614C53.6559 54.2154 51.9757 54.2154 48.6154 54.2154H16.8154C13.4551 54.2154 11.7749 54.2154 10.4914 53.5614C10.094 53.3589 9.72264 53.1139 9.38323 52.8322C9.1015 52.4928 8.85649 52.1214 8.65396 51.7239C8 50.4405 8 48.7603 8 45.4V13.6C8 10.2397 8 8.55953 8.65396 7.27606C9.2292 6.14708 10.1471 5.2292 11.2761 4.65396C12.5595 4 14.2397 4 17.6 4H49.4C52.7603 4 54.4405 4 55.7239 4.65396C56.1214 4.85649 56.4928 5.1015 56.8322 5.38323Z" fill="url(#paint0_linear_116_658)"/>
</g>
<g filter="url(#filter3_d_116_658)">
<path d="M39.6631 37.58C40.1751 37.58 40.6018 37.7507 40.9431 38.092C41.2845 38.4333 41.4551 38.86 41.4551 39.372C41.4551 39.8627 41.2845 40.2787 40.9431 40.62C40.6018 40.94 40.1751 41.1 39.6631 41.1H28.7831C28.2285 41.1 27.7911 40.9293 27.4711 40.588C27.1511 40.2467 26.9911 39.8093 26.9911 39.276C26.9911 38.7427 27.1831 38.2733 27.5671 37.868L34.5431 30.412C35.3325 29.5587 35.9511 28.684 36.3991 27.788C36.8685 26.892 37.1031 26.1133 37.1031 25.452C37.1031 24.3853 36.7938 23.532 36.1751 22.892C35.5565 22.2307 34.7351 21.9 33.7111 21.9C33.3058 21.9 32.8898 21.996 32.4631 22.188C32.0365 22.38 31.6205 22.6467 31.2151 22.988C30.8311 23.3293 30.4685 23.724 30.1271 24.172C29.8711 24.5133 29.6151 24.7267 29.3591 24.812C29.1031 24.8973 28.8685 24.94 28.6551 24.94C28.1858 24.94 27.7485 24.7693 27.3431 24.428C26.9591 24.0653 26.7671 23.6493 26.7671 23.18C26.7671 22.8173 26.8845 22.4653 27.1191 22.124C27.3751 21.7827 27.6845 21.4307 28.0471 21.068C28.5805 20.5347 29.1778 20.0653 29.8391 19.66C30.5005 19.2547 31.1831 18.9453 31.8871 18.732C32.5911 18.4973 33.2738 18.38 33.9351 18.38C35.3645 18.38 36.6018 18.668 37.6471 19.244C38.7138 19.7987 39.5351 20.5987 40.1111 21.644C40.6871 22.668 40.9751 23.884 40.9751 25.292C40.9751 26.4653 40.6231 27.7773 39.9191 29.228C39.2365 30.6573 38.3085 32.0013 37.1351 33.26L32.8151 37.868L32.4631 37.58H39.6631Z" fill="url(#paint1_linear_116_658)"/>
</g>
</g>
<defs>
<filter id="filter0_d_116_658" x="0" y="0" width="67" height="67" filterUnits="userSpaceOnUse" color-interpolation-filters="sRGB">
<feFlood flood-opacity="0" result="BackgroundImageFix"/>
<feColorMatrix in="SourceAlpha" type="matrix" values="0 0 0 0 0 0 0 0 0 0 0 0 0 0 0 0 0 0 127 0" result="hardAlpha"/>
<feOffset dy="4"/>
<feGaussianBlur stdDeviation="4"/>
<feComposite in2="hardAlpha" operator="out"/>
<feColorMatrix type="matrix" values="0 0 0 0 0.608333 0 0 0 0 0.296563 0 0 0 0 0.542835 0 0 0 0.25 0"/>
<feBlend mode="normal" in2="BackgroundImageFix" result="effect1_dropShadow_116_658"/>
<feBlend mode="normal" in="SourceGraphic" in2="effect1_dropShadow_116_658" result="shape"/>
</filter>
<filter id="filter1_i_116_658" x="8" y="4" width="51" height="51" filterUnits="userSpaceOnUse" color-interpolation-filters="sRGB">
<feFlood flood-opacity="0" result="BackgroundImageFix"/>
<feBlend mode="normal" in="SourceGraphic" in2="BackgroundImageFix" result="shape"/>
<feColorMatrix in="SourceAlpha" type="matrix" values="0 0 0 0 0 0 0 0 0 0 0 0 0 0 0 0 0 0 127 0" result="hardAlpha"/>
<feOffset dx="1" dy="1"/>
<feComposite in2="hardAlpha" operator="arithmetic" k2="-1" k3="1"/>
<feColorMatrix type="matrix" values="0 0 0 0 1 0 0 0 0 1 0 0 0 0 1 0 0 0 0.22 0"/>
<feBlend mode="normal" in2="shape" result="effect1_innerShadow_116_658"/>
</filter>
<filter id="filter2_i_116_658" x="8" y="4" width="50.2154" height="50.2154" filterUnits="userSpaceOnUse" color-interpolation-filters="sRGB">
<feFlood flood-opacity="0" result="BackgroundImageFix"/>
<feBlend mode="normal" in="SourceGraphic" in2="BackgroundImageFix" result="shape"/>
<feColorMatrix in="SourceAlpha" type="matrix" values="0 0 0 0 0 0 0 0 0 0 0 0 0 0 0 0 0 0 127 0" result="hardAlpha"/>
<feOffset dx="1" dy="1"/>
<feComposite in2="hardAlpha" operator="arithmetic" k2="-1" k3="1"/>
<feColorMatrix type="matrix" values="0 0 0 0 1 0 0 0 0 1 0 0 0 0 1 0 0 0 0.22 0"/>
<feBlend mode="normal" in2="shape" result="effect1_innerShadow_116_658"/>
</filter>
<filter id="filter3_d_116_658" x="18.7671" y="14.38" width="30.688" height="38.72" filterUnits="userSpaceOnUse" color-interpolation-filters="sRGB">
<feFlood flood-opacity="0" result="BackgroundImageFix"/>
<feColorMatrix in="SourceAlpha" type="matrix" values="0 0 0 0 0 0 0 0 0 0 0 0 0 0 0 0 0 0 127 0" result="hardAlpha"/>
<feOffset dy="4"/>
<feGaussianBlur stdDeviation="4"/>
<feComposite in2="hardAlpha" operator="out"/>
<feColorMatrix type="matrix" values="0 0 0 0 0 0 0 0 0 0 0 0 0 0 0 0 0 0 0.17 0"/>
<feBlend mode="normal" in2="BackgroundImageFix" result="effect1_dropShadow_116_658"/>
<feBlend mode="normal" in="SourceGraphic" in2="effect1_dropShadow_116_658" result="shape"/>
</filter>
<linearGradient id="paint0_linear_116_658" x1="33.1077" y1="4" x2="33.1077" y2="54.2154" gradientUnits="userSpaceOnUse">
<stop stop-color="#D457BA"/>
<stop offset="1" stop-color="#ED78D5"/>
</linearGradient>
<linearGradient id="paint1_linear_116_658" x1="34.1165" y1="16.8693" x2="34.1165" y2="41.5847" gradientUnits="userSpaceOnUse">
<stop stop-color="white"/>
<stop offset="1" stop-color="#DCDCDC"/>
</linearGradient>
</defs>
</svg>
