<svg width="67" height="67" viewBox="0 0 67 67" fill="none" xmlns="http://www.w3.org/2000/svg">
<g filter="url(#filter0_d_116_660)">
<g filter="url(#filter1_i_116_660)">
<rect x="8" y="4" width="51" height="51" rx="6" fill="#3174BE"/>
</g>
<g filter="url(#filter2_i_116_660)">
<path fill-rule="evenodd" clip-rule="evenodd" d="M56.8322 5.38323C57.1139 5.72264 57.3589 6.09396 57.5614 6.49144C58.2154 7.77491 58.2154 9.45507 58.2154 12.8154V44.6154C58.2154 47.9757 58.2154 49.6559 57.5614 50.9393C56.9862 52.0683 56.0683 52.9862 54.9393 53.5614C53.6559 54.2154 51.9757 54.2154 48.6154 54.2154H16.8154C13.4551 54.2154 11.7749 54.2154 10.4914 53.5614C10.094 53.3589 9.72264 53.1139 9.38323 52.8322C9.1015 52.4928 8.85649 52.1214 8.65396 51.7239C8 50.4405 8 48.7603 8 45.4V13.6C8 10.2397 8 8.55953 8.65396 7.27606C9.2292 6.14708 10.1471 5.2292 11.2761 4.65396C12.5595 4 14.2397 4 17.6 4H49.4C52.7603 4 54.4405 4 55.7239 4.65396C56.1214 4.85649 56.4928 5.1015 56.8322 5.38323Z" fill="url(#paint0_linear_116_660)"/>
</g>
<g filter="url(#filter3_d_116_660)">
<path d="M36.3736 41.1C35.8403 41.1 35.3923 40.9186 35.0296 40.556C34.667 40.172 34.4856 39.7026 34.4856 39.148V24.108L35.1576 24.268L28.9816 31.916L28.8216 31.5H40.1496C40.6616 31.5 41.0883 31.6706 41.4296 32.012C41.771 32.3533 41.9416 32.78 41.9416 33.292C41.9416 33.7826 41.771 34.1986 41.4296 34.54C41.0883 34.86 40.6616 35.02 40.1496 35.02H26.1656C25.7176 35.02 25.2803 34.8386 24.8536 34.476C24.4483 34.1133 24.2456 33.6653 24.2456 33.132C24.2456 32.6626 24.4056 32.236 24.7256 31.852L34.8376 19.468C35.0083 19.2333 35.2323 19.052 35.5096 18.924C35.787 18.7746 36.0963 18.7 36.4376 18.7C36.9923 18.7 37.4403 18.892 37.7816 19.276C38.1443 19.6386 38.3256 20.0973 38.3256 20.652V39.148C38.3256 39.7026 38.1336 40.172 37.7496 40.556C37.387 40.9186 36.9283 41.1 36.3736 41.1Z" fill="url(#paint1_linear_116_660)"/>
</g>
</g>
<defs>
<filter id="filter0_d_116_660" x="0" y="0" width="67" height="67" filterUnits="userSpaceOnUse" color-interpolation-filters="sRGB">
<feFlood flood-opacity="0" result="BackgroundImageFix"/>
<feColorMatrix in="SourceAlpha" type="matrix" values="0 0 0 0 0 0 0 0 0 0 0 0 0 0 0 0 0 0 127 0" result="hardAlpha"/>
<feOffset dy="4"/>
<feGaussianBlur stdDeviation="4"/>
<feComposite in2="hardAlpha" operator="out"/>
<feColorMatrix type="matrix" values="0 0 0 0 0.222083 0 0 0 0 0.442293 0 0 0 0 0.683333 0 0 0 0.37 0"/>
<feBlend mode="normal" in2="BackgroundImageFix" result="effect1_dropShadow_116_660"/>
<feBlend mode="normal" in="SourceGraphic" in2="effect1_dropShadow_116_660" result="shape"/>
</filter>
<filter id="filter1_i_116_660" x="8" y="4" width="51" height="51" filterUnits="userSpaceOnUse" color-interpolation-filters="sRGB">
<feFlood flood-opacity="0" result="BackgroundImageFix"/>
<feBlend mode="normal" in="SourceGraphic" in2="BackgroundImageFix" result="shape"/>
<feColorMatrix in="SourceAlpha" type="matrix" values="0 0 0 0 0 0 0 0 0 0 0 0 0 0 0 0 0 0 127 0" result="hardAlpha"/>
<feOffset dx="1" dy="1"/>
<feComposite in2="hardAlpha" operator="arithmetic" k2="-1" k3="1"/>
<feColorMatrix type="matrix" values="0 0 0 0 1 0 0 0 0 1 0 0 0 0 1 0 0 0 0.22 0"/>
<feBlend mode="normal" in2="shape" result="effect1_innerShadow_116_660"/>
</filter>
<filter id="filter2_i_116_660" x="8" y="4" width="50.2154" height="50.2154" filterUnits="userSpaceOnUse" color-interpolation-filters="sRGB">
<feFlood flood-opacity="0" result="BackgroundImageFix"/>
<feBlend mode="normal" in="SourceGraphic" in2="BackgroundImageFix" result="shape"/>
<feColorMatrix in="SourceAlpha" type="matrix" values="0 0 0 0 0 0 0 0 0 0 0 0 0 0 0 0 0 0 127 0" result="hardAlpha"/>
<feOffset dx="1" dy="1"/>
<feComposite in2="hardAlpha" operator="arithmetic" k2="-1" k3="1"/>
<feColorMatrix type="matrix" values="0 0 0 0 1 0 0 0 0 1 0 0 0 0 1 0 0 0 0.22 0"/>
<feBlend mode="normal" in2="shape" result="effect1_innerShadow_116_660"/>
</filter>
<filter id="filter3_d_116_660" x="16.2456" y="14.7" width="33.696" height="38.4" filterUnits="userSpaceOnUse" color-interpolation-filters="sRGB">
<feFlood flood-opacity="0" result="BackgroundImageFix"/>
<feColorMatrix in="SourceAlpha" type="matrix" values="0 0 0 0 0 0 0 0 0 0 0 0 0 0 0 0 0 0 127 0" result="hardAlpha"/>
<feOffset dy="4"/>
<feGaussianBlur stdDeviation="4"/>
<feComposite in2="hardAlpha" operator="out"/>
<feColorMatrix type="matrix" values="0 0 0 0 0 0 0 0 0 0 0 0 0 0 0 0 0 0 0.17 0"/>
<feBlend mode="normal" in2="BackgroundImageFix" result="effect1_dropShadow_116_660"/>
<feBlend mode="normal" in="SourceGraphic" in2="effect1_dropShadow_116_660" result="shape"/>
</filter>
<linearGradient id="paint0_linear_116_660" x1="33.1077" y1="12.6308" x2="33.1077" y2="54.2154" gradientUnits="userSpaceOnUse">
<stop stop-color="#3C85D6"/>
<stop offset="1" stop-color="#529BED"/>
</linearGradient>
<linearGradient id="paint1_linear_116_660" x1="33.3319" y1="16.8693" x2="33.3319" y2="41.5847" gradientUnits="userSpaceOnUse">
<stop stop-color="white"/>
<stop offset="1" stop-color="#DCDCDC"/>
</linearGradient>
</defs>
</svg>
