<svg width="67" height="67" viewBox="0 0 67 67" fill="none" xmlns="http://www.w3.org/2000/svg">
<g filter="url(#filter0_d_116_662)">
<g filter="url(#filter1_i_116_662)">
<rect x="8" y="4" width="51" height="51" rx="6" fill="#BE4C37"/>
</g>
<g filter="url(#filter2_i_116_662)">
<path fill-rule="evenodd" clip-rule="evenodd" d="M56.8322 5.38323C57.1139 5.72264 57.3589 6.09396 57.5614 6.49144C58.2154 7.77491 58.2154 9.45507 58.2154 12.8154V44.6154C58.2154 47.9757 58.2154 49.6559 57.5614 50.9393C56.9862 52.0683 56.0683 52.9862 54.9393 53.5614C53.6559 54.2154 51.9757 54.2154 48.6154 54.2154H16.8154C13.4551 54.2154 11.7749 54.2154 10.4914 53.5614C10.094 53.3589 9.72264 53.1139 9.38323 52.8322C9.1015 52.4928 8.85649 52.1214 8.65396 51.7239C8 50.4405 8 48.7603 8 45.4V13.6C8 10.2397 8 8.55953 8.65396 7.27606C9.2292 6.14708 10.1471 5.2292 11.2761 4.65396C12.5595 4 14.2397 4 17.6 4H49.4C52.7603 4 54.4405 4 55.7239 4.65396C56.1214 4.85649 56.4928 5.1015 56.8322 5.38323Z" fill="url(#paint0_linear_116_662)"/>
</g>
<g filter="url(#filter3_d_116_662)">
<path d="M33.6081 41.42C32.4561 41.42 31.4108 41.1853 30.4721 40.716C29.5548 40.2253 28.7655 39.564 28.1041 38.732C27.4641 37.9 26.9628 36.9613 26.6001 35.916C26.2588 34.8706 26.0881 33.7933 26.0881 32.684C26.0881 31.9586 26.1628 31.084 26.3121 30.06C26.4828 29.036 26.7708 27.9586 27.1761 26.828C27.5815 25.6973 28.1468 24.5986 28.8721 23.532C29.5975 22.4653 30.5148 21.5053 31.6241 20.652C32.7548 19.7986 34.1308 19.148 35.7521 18.7C36.0081 18.636 36.2535 18.604 36.4881 18.604C36.9788 18.604 37.4161 18.732 37.8001 18.988C38.2055 19.244 38.4081 19.7133 38.4081 20.396C38.4081 20.8653 38.2481 21.2813 37.9281 21.644C37.6295 21.9853 37.2241 22.2306 36.7121 22.38C35.9868 22.5933 35.2615 22.9133 34.5361 23.34C33.8321 23.7453 33.1708 24.2466 32.5521 24.844C31.9548 25.4413 31.4321 26.124 30.9841 26.892C30.5575 27.6386 30.2481 28.4493 30.0561 29.324L29.1921 29.292C29.4908 28.9293 29.8535 28.5453 30.2801 28.14C30.7281 27.7133 31.2615 27.3506 31.8801 27.052C32.5201 26.732 33.2668 26.572 34.1201 26.572C34.9521 26.572 35.7735 26.764 36.5841 27.148C37.4161 27.532 38.1628 28.0653 38.8241 28.748C39.5068 29.4093 40.0508 30.1986 40.4561 31.116C40.8615 32.012 41.0641 32.972 41.0641 33.996C41.0641 35.3613 40.7228 36.6093 40.0401 37.74C39.3788 38.8706 38.4828 39.7666 37.3521 40.428C36.2428 41.0893 34.9948 41.42 33.6081 41.42ZM33.6081 37.9C34.2908 37.9 34.8988 37.7293 35.4321 37.388C35.9868 37.0466 36.4241 36.5773 36.7441 35.98C37.0641 35.3826 37.2241 34.7213 37.2241 33.996C37.2241 33.2493 37.0641 32.588 36.7441 32.012C36.4241 31.4146 35.9868 30.9453 35.4321 30.604C34.8988 30.2626 34.2908 30.092 33.6081 30.092C32.9255 30.092 32.3068 30.2626 31.7521 30.604C31.2188 30.9453 30.7921 31.4146 30.4721 32.012C30.1521 32.588 29.9921 33.2493 29.9921 33.996C29.9921 34.7213 30.1521 35.3826 30.4721 35.98C30.7921 36.5773 31.2188 37.0466 31.7521 37.388C32.3068 37.7293 32.9255 37.9 33.6081 37.9Z" fill="url(#paint1_linear_116_662)"/>
</g>
</g>
<defs>
<filter id="filter0_d_116_662" x="0" y="0" width="67" height="67" filterUnits="userSpaceOnUse" color-interpolation-filters="sRGB">
<feFlood flood-opacity="0" result="BackgroundImageFix"/>
<feColorMatrix in="SourceAlpha" type="matrix" values="0 0 0 0 0 0 0 0 0 0 0 0 0 0 0 0 0 0 127 0" result="hardAlpha"/>
<feOffset dy="4"/>
<feGaussianBlur stdDeviation="4"/>
<feComposite in2="hardAlpha" operator="out"/>
<feColorMatrix type="matrix" values="0 0 0 0 0.964706 0 0 0 0 0.47451 0 0 0 0 0.380392 0 0 0 0.15 0"/>
<feBlend mode="normal" in2="BackgroundImageFix" result="effect1_dropShadow_116_662"/>
<feBlend mode="normal" in="SourceGraphic" in2="effect1_dropShadow_116_662" result="shape"/>
</filter>
<filter id="filter1_i_116_662" x="8" y="4" width="51" height="51" filterUnits="userSpaceOnUse" color-interpolation-filters="sRGB">
<feFlood flood-opacity="0" result="BackgroundImageFix"/>
<feBlend mode="normal" in="SourceGraphic" in2="BackgroundImageFix" result="shape"/>
<feColorMatrix in="SourceAlpha" type="matrix" values="0 0 0 0 0 0 0 0 0 0 0 0 0 0 0 0 0 0 127 0" result="hardAlpha"/>
<feOffset dx="1" dy="1"/>
<feComposite in2="hardAlpha" operator="arithmetic" k2="-1" k3="1"/>
<feColorMatrix type="matrix" values="0 0 0 0 1 0 0 0 0 1 0 0 0 0 1 0 0 0 0.22 0"/>
<feBlend mode="normal" in2="shape" result="effect1_innerShadow_116_662"/>
</filter>
<filter id="filter2_i_116_662" x="8" y="4" width="50.2154" height="50.2154" filterUnits="userSpaceOnUse" color-interpolation-filters="sRGB">
<feFlood flood-opacity="0" result="BackgroundImageFix"/>
<feBlend mode="normal" in="SourceGraphic" in2="BackgroundImageFix" result="shape"/>
<feColorMatrix in="SourceAlpha" type="matrix" values="0 0 0 0 0 0 0 0 0 0 0 0 0 0 0 0 0 0 127 0" result="hardAlpha"/>
<feOffset dx="1" dy="1"/>
<feComposite in2="hardAlpha" operator="arithmetic" k2="-1" k3="1"/>
<feColorMatrix type="matrix" values="0 0 0 0 1 0 0 0 0 1 0 0 0 0 1 0 0 0 0.22 0"/>
<feBlend mode="normal" in2="shape" result="effect1_innerShadow_116_662"/>
</filter>
<filter id="filter3_d_116_662" x="18.0881" y="14.604" width="30.976" height="38.816" filterUnits="userSpaceOnUse" color-interpolation-filters="sRGB">
<feFlood flood-opacity="0" result="BackgroundImageFix"/>
<feColorMatrix in="SourceAlpha" type="matrix" values="0 0 0 0 0 0 0 0 0 0 0 0 0 0 0 0 0 0 127 0" result="hardAlpha"/>
<feOffset dy="4"/>
<feGaussianBlur stdDeviation="4"/>
<feComposite in2="hardAlpha" operator="out"/>
<feColorMatrix type="matrix" values="0 0 0 0 0 0 0 0 0 0 0 0 0 0 0 0 0 0 0.17 0"/>
<feBlend mode="normal" in2="BackgroundImageFix" result="effect1_dropShadow_116_662"/>
<feBlend mode="normal" in="SourceGraphic" in2="effect1_dropShadow_116_662" result="shape"/>
</filter>
<linearGradient id="paint0_linear_116_662" x1="33.1077" y1="4" x2="33.1077" y2="54.2154" gradientUnits="userSpaceOnUse">
<stop stop-color="#E06149"/>
<stop offset="1" stop-color="#FA7D65"/>
</linearGradient>
<linearGradient id="paint1_linear_116_662" x1="33.3319" y1="16.8693" x2="33.3319" y2="41.5847" gradientUnits="userSpaceOnUse">
<stop stop-color="white"/>
<stop offset="1" stop-color="#DCDCDC"/>
</linearGradient>
</defs>
</svg>
