<svg width="67" height="67" viewBox="0 0 67 67" fill="none" xmlns="http://www.w3.org/2000/svg">
<g filter="url(#filter0_d_116_659)">
<g filter="url(#filter1_i_116_659)">
<rect x="8" y="4" width="51" height="51" rx="6" fill="#BE4C37"/>
</g>
<g filter="url(#filter2_i_116_659)">
<path fill-rule="evenodd" clip-rule="evenodd" d="M56.8322 5.38323C57.1139 5.72264 57.3589 6.09396 57.5614 6.49144C58.2154 7.77491 58.2154 9.45507 58.2154 12.8154V44.6154C58.2154 47.9757 58.2154 49.6559 57.5614 50.9393C56.9862 52.0683 56.0683 52.9862 54.9393 53.5614C53.6559 54.2154 51.9757 54.2154 48.6154 54.2154H16.8154C13.4551 54.2154 11.7749 54.2154 10.4914 53.5614C10.094 53.3589 9.72264 53.1139 9.38323 52.8322C9.1015 52.4928 8.85649 52.1214 8.65396 51.7239C8 50.4405 8 48.7603 8 45.4V13.6C8 10.2397 8 8.55953 8.65396 7.27606C9.2292 6.14708 10.1471 5.2292 11.2761 4.65396C12.5595 4 14.2397 4 17.6 4H49.4C52.7603 4 54.4405 4 55.7239 4.65396C56.1214 4.85649 56.4928 5.1015 56.8322 5.38323Z" fill="url(#paint0_linear_116_659)"/>
</g>
<g filter="url(#filter3_d_116_659)">
<path d="M28.3221 36.588C28.5141 36.588 28.7168 36.62 28.9301 36.684C29.1648 36.748 29.4208 36.876 29.6981 37.068C30.0608 37.3453 30.4875 37.5906 30.9781 37.804C31.4901 38.0173 32.0768 38.124 32.7381 38.124C33.3995 38.124 34.0181 37.964 34.5941 37.644C35.1915 37.3026 35.6821 36.8333 36.0661 36.236C36.4501 35.6173 36.6421 34.8813 36.6421 34.028C36.6421 33.2173 36.4715 32.5453 36.1301 32.012C35.8101 31.4786 35.3728 31.0733 34.8181 30.796C34.2848 30.5186 33.7088 30.38 33.0901 30.38C32.6208 30.38 32.2261 30.4226 31.9061 30.508C31.6075 30.5933 31.3088 30.6893 31.0101 30.796C30.7328 30.8813 30.4021 30.924 30.0181 30.924C29.5275 30.924 29.1435 30.7533 28.8661 30.412C28.6101 30.0706 28.4821 29.6653 28.4821 29.196C28.4821 28.8973 28.5355 28.6306 28.6421 28.396C28.7701 28.1613 28.9515 27.9053 29.1861 27.628L34.8181 21.644L35.6821 22.38H27.8101C27.2981 22.38 26.8715 22.2093 26.5301 21.868C26.1888 21.5266 26.0181 21.1 26.0181 20.588C26.0181 20.0973 26.1888 19.692 26.5301 19.372C26.8715 19.0306 27.2981 18.86 27.8101 18.86H37.6021C38.2635 18.86 38.7541 19.0413 39.0741 19.404C39.4155 19.7666 39.5861 20.2253 39.5861 20.78C39.5861 21.0573 39.5115 21.3346 39.3621 21.612C39.2128 21.868 39.0315 22.1026 38.8181 22.316L33.1541 28.396L32.2901 27.308C32.5248 27.2013 32.8448 27.1053 33.2501 27.02C33.6768 26.9346 34.0288 26.892 34.3061 26.892C35.5648 26.892 36.6528 27.2226 37.5701 27.884C38.5088 28.524 39.2235 29.3666 39.7141 30.412C40.2261 31.436 40.4821 32.5453 40.4821 33.74C40.4821 35.3186 40.1301 36.684 39.4261 37.836C38.7221 38.988 37.7301 39.8733 36.4501 40.492C35.1701 41.1106 33.6768 41.42 31.9701 41.42C31.1808 41.42 30.4021 41.324 29.6341 41.132C28.8661 40.94 28.2048 40.684 27.6501 40.364C27.1808 40.108 26.8608 39.8306 26.6901 39.532C26.5408 39.212 26.4661 38.9133 26.4661 38.636C26.4661 38.1453 26.6368 37.6866 26.9781 37.26C27.3408 36.812 27.7888 36.588 28.3221 36.588Z" fill="url(#paint1_linear_116_659)"/>
</g>
</g>
<defs>
<filter id="filter0_d_116_659" x="0" y="0" width="67" height="67" filterUnits="userSpaceOnUse" color-interpolation-filters="sRGB">
<feFlood flood-opacity="0" result="BackgroundImageFix"/>
<feColorMatrix in="SourceAlpha" type="matrix" values="0 0 0 0 0 0 0 0 0 0 0 0 0 0 0 0 0 0 127 0" result="hardAlpha"/>
<feOffset dy="4"/>
<feGaussianBlur stdDeviation="4"/>
<feComposite in2="hardAlpha" operator="out"/>
<feColorMatrix type="matrix" values="0 0 0 0 0.964706 0 0 0 0 0.47451 0 0 0 0 0.380392 0 0 0 0.15 0"/>
<feBlend mode="normal" in2="BackgroundImageFix" result="effect1_dropShadow_116_659"/>
<feBlend mode="normal" in="SourceGraphic" in2="effect1_dropShadow_116_659" result="shape"/>
</filter>
<filter id="filter1_i_116_659" x="8" y="4" width="51" height="51" filterUnits="userSpaceOnUse" color-interpolation-filters="sRGB">
<feFlood flood-opacity="0" result="BackgroundImageFix"/>
<feBlend mode="normal" in="SourceGraphic" in2="BackgroundImageFix" result="shape"/>
<feColorMatrix in="SourceAlpha" type="matrix" values="0 0 0 0 0 0 0 0 0 0 0 0 0 0 0 0 0 0 127 0" result="hardAlpha"/>
<feOffset dx="1" dy="1"/>
<feComposite in2="hardAlpha" operator="arithmetic" k2="-1" k3="1"/>
<feColorMatrix type="matrix" values="0 0 0 0 1 0 0 0 0 1 0 0 0 0 1 0 0 0 0.22 0"/>
<feBlend mode="normal" in2="shape" result="effect1_innerShadow_116_659"/>
</filter>
<filter id="filter2_i_116_659" x="8" y="4" width="50.2154" height="50.2154" filterUnits="userSpaceOnUse" color-interpolation-filters="sRGB">
<feFlood flood-opacity="0" result="BackgroundImageFix"/>
<feBlend mode="normal" in="SourceGraphic" in2="BackgroundImageFix" result="shape"/>
<feColorMatrix in="SourceAlpha" type="matrix" values="0 0 0 0 0 0 0 0 0 0 0 0 0 0 0 0 0 0 127 0" result="hardAlpha"/>
<feOffset dx="1" dy="1"/>
<feComposite in2="hardAlpha" operator="arithmetic" k2="-1" k3="1"/>
<feColorMatrix type="matrix" values="0 0 0 0 1 0 0 0 0 1 0 0 0 0 1 0 0 0 0.22 0"/>
<feBlend mode="normal" in2="shape" result="effect1_innerShadow_116_659"/>
</filter>
<filter id="filter3_d_116_659" x="18.0181" y="14.86" width="30.464" height="38.56" filterUnits="userSpaceOnUse" color-interpolation-filters="sRGB">
<feFlood flood-opacity="0" result="BackgroundImageFix"/>
<feColorMatrix in="SourceAlpha" type="matrix" values="0 0 0 0 0 0 0 0 0 0 0 0 0 0 0 0 0 0 127 0" result="hardAlpha"/>
<feOffset dy="4"/>
<feGaussianBlur stdDeviation="4"/>
<feComposite in2="hardAlpha" operator="out"/>
<feColorMatrix type="matrix" values="0 0 0 0 0 0 0 0 0 0 0 0 0 0 0 0 0 0 0.17 0"/>
<feBlend mode="normal" in2="BackgroundImageFix" result="effect1_dropShadow_116_659"/>
<feBlend mode="normal" in="SourceGraphic" in2="effect1_dropShadow_116_659" result="shape"/>
</filter>
<linearGradient id="paint0_linear_116_659" x1="33.1077" y1="4" x2="33.1077" y2="54.2154" gradientUnits="userSpaceOnUse">
<stop stop-color="#E06149"/>
<stop offset="1" stop-color="#FA7D65"/>
</linearGradient>
<linearGradient id="paint1_linear_116_659" x1="33.3319" y1="16.8693" x2="33.3319" y2="41.5847" gradientUnits="userSpaceOnUse">
<stop stop-color="white"/>
<stop offset="1" stop-color="#DCDCDC"/>
</linearGradient>
</defs>
</svg>
