<svg width="67" height="67" viewBox="0 0 67 67" fill="none" xmlns="http://www.w3.org/2000/svg">
<g filter="url(#filter0_d_116_663)">
<g filter="url(#filter1_i_116_663)">
<rect x="8" y="4" width="51" height="51" rx="6" fill="#31A5A4"/>
</g>
<g filter="url(#filter2_i_116_663)">
<path fill-rule="evenodd" clip-rule="evenodd" d="M56.8322 5.38323C57.1139 5.72264 57.3589 6.09396 57.5614 6.49144C58.2154 7.77491 58.2154 9.45507 58.2154 12.8154V44.6154C58.2154 47.9757 58.2154 49.6559 57.5614 50.9393C56.9862 52.0683 56.0683 52.9862 54.9393 53.5614C53.6559 54.2154 51.9757 54.2154 48.6154 54.2154H16.8154C13.4551 54.2154 11.7749 54.2154 10.4914 53.5614C10.094 53.3589 9.72264 53.1139 9.38323 52.8322C9.1015 52.4928 8.85649 52.1214 8.65396 51.7239C8 50.4405 8 48.7603 8 45.4V13.6C8 10.2397 8 8.55953 8.65396 7.27606C9.2292 6.14708 10.1471 5.2292 11.2761 4.65396C12.5595 4 14.2397 4 17.6 4H49.4C52.7603 4 54.4405 4 55.7239 4.65396C56.1214 4.85649 56.4928 5.1015 56.8322 5.38323Z" fill="url(#paint0_linear_116_663)"/>
</g>
<g filter="url(#filter3_d_116_663)">
<path d="M30.9506 41.26C30.4173 41.26 29.948 41.0893 29.5426 40.748C29.1586 40.3853 28.9666 39.9373 28.9666 39.404C28.9666 39.1053 29.0306 38.8173 29.1586 38.54L36.9986 21.548L37.3506 22.412H28.1026C27.5906 22.412 27.164 22.2413 26.8226 21.9C26.4813 21.5586 26.3106 21.132 26.3106 20.62C26.3106 20.1293 26.4813 19.724 26.8226 19.404C27.164 19.0626 27.5906 18.892 28.1026 18.892H39.2386C39.7933 18.892 40.2733 19.0733 40.6786 19.436C41.1053 19.7773 41.3186 20.2253 41.3186 20.78C41.3186 21.0573 41.2546 21.3453 41.1266 21.644L32.7106 40.044C32.5613 40.428 32.316 40.7266 31.9746 40.94C31.6546 41.1533 31.3133 41.26 30.9506 41.26Z" fill="url(#paint1_linear_116_663)"/>
</g>
</g>
<defs>
<filter id="filter0_d_116_663" x="0" y="0" width="67" height="67" filterUnits="userSpaceOnUse" color-interpolation-filters="sRGB">
<feFlood flood-opacity="0" result="BackgroundImageFix"/>
<feColorMatrix in="SourceAlpha" type="matrix" values="0 0 0 0 0 0 0 0 0 0 0 0 0 0 0 0 0 0 127 0" result="hardAlpha"/>
<feOffset dy="4"/>
<feGaussianBlur stdDeviation="4"/>
<feComposite in2="hardAlpha" operator="out"/>
<feColorMatrix type="matrix" values="0 0 0 0 0.333333 0 0 0 0 0.854902 0 0 0 0 0.85098 0 0 0 0.11 0"/>
<feBlend mode="normal" in2="BackgroundImageFix" result="effect1_dropShadow_116_663"/>
<feBlend mode="normal" in="SourceGraphic" in2="effect1_dropShadow_116_663" result="shape"/>
</filter>
<filter id="filter1_i_116_663" x="8" y="4" width="51" height="51" filterUnits="userSpaceOnUse" color-interpolation-filters="sRGB">
<feFlood flood-opacity="0" result="BackgroundImageFix"/>
<feBlend mode="normal" in="SourceGraphic" in2="BackgroundImageFix" result="shape"/>
<feColorMatrix in="SourceAlpha" type="matrix" values="0 0 0 0 0 0 0 0 0 0 0 0 0 0 0 0 0 0 127 0" result="hardAlpha"/>
<feOffset dx="1" dy="1"/>
<feComposite in2="hardAlpha" operator="arithmetic" k2="-1" k3="1"/>
<feColorMatrix type="matrix" values="0 0 0 0 1 0 0 0 0 1 0 0 0 0 1 0 0 0 0.22 0"/>
<feBlend mode="normal" in2="shape" result="effect1_innerShadow_116_663"/>
</filter>
<filter id="filter2_i_116_663" x="8" y="4" width="50.2154" height="50.2154" filterUnits="userSpaceOnUse" color-interpolation-filters="sRGB">
<feFlood flood-opacity="0" result="BackgroundImageFix"/>
<feBlend mode="normal" in="SourceGraphic" in2="BackgroundImageFix" result="shape"/>
<feColorMatrix in="SourceAlpha" type="matrix" values="0 0 0 0 0 0 0 0 0 0 0 0 0 0 0 0 0 0 127 0" result="hardAlpha"/>
<feOffset dx="1" dy="1"/>
<feComposite in2="hardAlpha" operator="arithmetic" k2="-1" k3="1"/>
<feColorMatrix type="matrix" values="0 0 0 0 1 0 0 0 0 1 0 0 0 0 1 0 0 0 0.22 0"/>
<feBlend mode="normal" in2="shape" result="effect1_innerShadow_116_663"/>
</filter>
<filter id="filter3_d_116_663" x="18.3106" y="14.892" width="31.008" height="38.368" filterUnits="userSpaceOnUse" color-interpolation-filters="sRGB">
<feFlood flood-opacity="0" result="BackgroundImageFix"/>
<feColorMatrix in="SourceAlpha" type="matrix" values="0 0 0 0 0 0 0 0 0 0 0 0 0 0 0 0 0 0 127 0" result="hardAlpha"/>
<feOffset dy="4"/>
<feGaussianBlur stdDeviation="4"/>
<feComposite in2="hardAlpha" operator="out"/>
<feColorMatrix type="matrix" values="0 0 0 0 0 0 0 0 0 0 0 0 0 0 0 0 0 0 0.17 0"/>
<feBlend mode="normal" in2="BackgroundImageFix" result="effect1_dropShadow_116_663"/>
<feBlend mode="normal" in="SourceGraphic" in2="effect1_dropShadow_116_663" result="shape"/>
</filter>
<linearGradient id="paint0_linear_116_663" x1="33.1077" y1="4" x2="33.1077" y2="54.2154" gradientUnits="userSpaceOnUse">
<stop stop-color="#44CAC9"/>
<stop offset="1" stop-color="#5BDFDE"/>
</linearGradient>
<linearGradient id="paint1_linear_116_663" x1="33.3319" y1="16.8693" x2="33.3319" y2="41.5847" gradientUnits="userSpaceOnUse">
<stop stop-color="white"/>
<stop offset="1" stop-color="#DCDCDC"/>
</linearGradient>
</defs>
</svg>
